<mxfile host="app.diagrams.net" modified="2024-03-21T19:39:29.530Z" agent="Mozilla/5.0 (Windows NT 10.0; Win64; x64) AppleWebKit/537.36 (KHTML, like Gecko) Chrome/121.0.0.0 Safari/537.36 OPR/107.0.0.0" etag="YTUBFELSAIDq3BoBUgP3" version="23.0.2" type="github">
  <diagram id="R2lEEEUBdFMjLlhIrx00" name="Page-1">
    <mxGraphModel dx="1393" dy="776" grid="1" gridSize="10" guides="1" tooltips="1" connect="1" arrows="1" fold="1" page="1" pageScale="1" pageWidth="850" pageHeight="1100" math="0" shadow="0" extFonts="Permanent Marker^https://fonts.googleapis.com/css?family=Permanent+Marker">
      <root>
        <mxCell id="0" />
        <mxCell id="1" parent="0" />
        <mxCell id="7sQpSWEZFjkxRv6NlpaU-1" value="Mammal" style="rounded=0;whiteSpace=wrap;html=1;" parent="1" vertex="1">
          <mxGeometry x="215" y="180" width="100" height="40" as="geometry" />
        </mxCell>
        <mxCell id="7sQpSWEZFjkxRv6NlpaU-2" value="Habitat" style="rounded=0;whiteSpace=wrap;html=1;" parent="1" vertex="1">
          <mxGeometry x="590" y="180" width="100" height="40" as="geometry" />
        </mxCell>
        <mxCell id="7sQpSWEZFjkxRv6NlpaU-3" value="Food" style="rounded=0;whiteSpace=wrap;html=1;" parent="1" vertex="1">
          <mxGeometry x="190" y="420" width="100" height="40" as="geometry" />
        </mxCell>
        <mxCell id="7sQpSWEZFjkxRv6NlpaU-4" value="&lt;u&gt;Scientific_name&lt;/u&gt;" style="ellipse;whiteSpace=wrap;html=1;strokeWidth=1;verticalAlign=middle;horizontal=1;spacingBottom=0;spacingTop=2;" parent="1" vertex="1">
          <mxGeometry x="50" y="140" width="120" height="30" as="geometry" />
        </mxCell>
        <mxCell id="7sQpSWEZFjkxRv6NlpaU-5" value="Dietary_classification" style="ellipse;whiteSpace=wrap;html=1;dashed=1;dashPattern=8 8;" parent="1" vertex="1">
          <mxGeometry x="90" y="70" width="140" height="30" as="geometry" />
        </mxCell>
        <mxCell id="7sQpSWEZFjkxRv6NlpaU-6" value="pregnancy_period" style="ellipse;whiteSpace=wrap;html=1;" parent="1" vertex="1">
          <mxGeometry x="25" y="190" width="120" height="40" as="geometry" />
        </mxCell>
        <mxCell id="7sQpSWEZFjkxRv6NlpaU-7" value="height" style="ellipse;whiteSpace=wrap;html=1;" parent="1" vertex="1">
          <mxGeometry x="215" y="100" width="100" height="30" as="geometry" />
        </mxCell>
        <mxCell id="7sQpSWEZFjkxRv6NlpaU-8" value="Average_mass" style="ellipse;whiteSpace=wrap;html=1;" parent="1" vertex="1">
          <mxGeometry x="335" y="80" width="100" height="40" as="geometry" />
        </mxCell>
        <mxCell id="7sQpSWEZFjkxRv6NlpaU-15" style="edgeStyle=orthogonalEdgeStyle;rounded=0;orthogonalLoop=1;jettySize=auto;html=1;exitX=0.5;exitY=1;exitDx=0;exitDy=0;" parent="1" source="7sQpSWEZFjkxRv6NlpaU-8" target="7sQpSWEZFjkxRv6NlpaU-8" edge="1">
          <mxGeometry relative="1" as="geometry" />
        </mxCell>
        <mxCell id="7sQpSWEZFjkxRv6NlpaU-17" value="Common_name" style="ellipse;whiteSpace=wrap;html=1;" parent="1" vertex="1">
          <mxGeometry x="80" y="250" width="120" height="30" as="geometry" />
        </mxCell>
        <mxCell id="7sQpSWEZFjkxRv6NlpaU-18" value="" style="endArrow=none;html=1;rounded=0;exitX=1;exitY=0.5;exitDx=0;exitDy=0;entryX=0;entryY=0.5;entryDx=0;entryDy=0;" parent="1" source="7sQpSWEZFjkxRv6NlpaU-6" target="7sQpSWEZFjkxRv6NlpaU-1" edge="1">
          <mxGeometry width="50" height="50" relative="1" as="geometry">
            <mxPoint x="550" y="300" as="sourcePoint" />
            <mxPoint x="600" y="250" as="targetPoint" />
          </mxGeometry>
        </mxCell>
        <mxCell id="7sQpSWEZFjkxRv6NlpaU-20" value="" style="endArrow=none;html=1;rounded=0;exitX=1;exitY=1;exitDx=0;exitDy=0;entryX=0;entryY=0;entryDx=0;entryDy=0;" parent="1" source="7sQpSWEZFjkxRv6NlpaU-4" target="7sQpSWEZFjkxRv6NlpaU-1" edge="1">
          <mxGeometry width="50" height="50" relative="1" as="geometry">
            <mxPoint x="550" y="300" as="sourcePoint" />
            <mxPoint x="600" y="250" as="targetPoint" />
          </mxGeometry>
        </mxCell>
        <mxCell id="7sQpSWEZFjkxRv6NlpaU-21" value="" style="endArrow=none;html=1;rounded=0;entryX=0.5;entryY=1;entryDx=0;entryDy=0;exitX=0.25;exitY=0;exitDx=0;exitDy=0;" parent="1" source="7sQpSWEZFjkxRv6NlpaU-1" target="7sQpSWEZFjkxRv6NlpaU-5" edge="1">
          <mxGeometry width="50" height="50" relative="1" as="geometry">
            <mxPoint x="270" y="200" as="sourcePoint" />
            <mxPoint x="320" y="150" as="targetPoint" />
          </mxGeometry>
        </mxCell>
        <mxCell id="7sQpSWEZFjkxRv6NlpaU-22" value="" style="endArrow=none;html=1;rounded=0;exitX=0.5;exitY=0;exitDx=0;exitDy=0;entryX=0.5;entryY=1;entryDx=0;entryDy=0;" parent="1" source="7sQpSWEZFjkxRv6NlpaU-1" target="7sQpSWEZFjkxRv6NlpaU-7" edge="1">
          <mxGeometry width="50" height="50" relative="1" as="geometry">
            <mxPoint x="350" y="210" as="sourcePoint" />
            <mxPoint x="400" y="160" as="targetPoint" />
          </mxGeometry>
        </mxCell>
        <mxCell id="7sQpSWEZFjkxRv6NlpaU-23" value="" style="endArrow=none;html=1;rounded=0;entryX=0;entryY=1;entryDx=0;entryDy=0;exitX=0.5;exitY=0;exitDx=0;exitDy=0;" parent="1" source="7sQpSWEZFjkxRv6NlpaU-17" target="7sQpSWEZFjkxRv6NlpaU-1" edge="1">
          <mxGeometry width="50" height="50" relative="1" as="geometry">
            <mxPoint x="350" y="330" as="sourcePoint" />
            <mxPoint x="400" y="280" as="targetPoint" />
          </mxGeometry>
        </mxCell>
        <mxCell id="7sQpSWEZFjkxRv6NlpaU-24" value="" style="endArrow=none;html=1;rounded=0;entryX=0.75;entryY=0;entryDx=0;entryDy=0;exitX=0;exitY=1;exitDx=0;exitDy=0;" parent="1" source="7sQpSWEZFjkxRv6NlpaU-8" target="7sQpSWEZFjkxRv6NlpaU-1" edge="1">
          <mxGeometry width="50" height="50" relative="1" as="geometry">
            <mxPoint x="350" y="290" as="sourcePoint" />
            <mxPoint x="400" y="240" as="targetPoint" />
          </mxGeometry>
        </mxCell>
        <mxCell id="7sQpSWEZFjkxRv6NlpaU-25" value="Average_temperature" style="ellipse;whiteSpace=wrap;html=1;" parent="1" vertex="1">
          <mxGeometry x="710" y="130" width="130" height="40" as="geometry" />
        </mxCell>
        <mxCell id="7sQpSWEZFjkxRv6NlpaU-26" value="&lt;u&gt;Name&lt;/u&gt;" style="ellipse;whiteSpace=wrap;html=1;" parent="1" vertex="1">
          <mxGeometry x="630" y="80" width="120" height="30" as="geometry" />
        </mxCell>
        <mxCell id="7sQpSWEZFjkxRv6NlpaU-28" value="humidity" style="ellipse;whiteSpace=wrap;html=1;" parent="1" vertex="1">
          <mxGeometry x="750" y="195" width="90" height="30" as="geometry" />
        </mxCell>
        <mxCell id="7sQpSWEZFjkxRv6NlpaU-29" value="Precipitation" style="ellipse;whiteSpace=wrap;html=1;" parent="1" vertex="1">
          <mxGeometry x="710" y="270" width="120" height="30" as="geometry" />
        </mxCell>
        <mxCell id="7sQpSWEZFjkxRv6NlpaU-31" value="Location" style="rounded=0;whiteSpace=wrap;html=1;" parent="1" vertex="1">
          <mxGeometry x="590" y="410" width="100" height="30" as="geometry" />
        </mxCell>
        <mxCell id="7sQpSWEZFjkxRv6NlpaU-32" value="&lt;u&gt;Longitude&lt;/u&gt;" style="ellipse;whiteSpace=wrap;html=1;" parent="1" vertex="1">
          <mxGeometry x="720" y="390" width="120" height="30" as="geometry" />
        </mxCell>
        <mxCell id="7sQpSWEZFjkxRv6NlpaU-33" value="&lt;u&gt;Latitude&lt;/u&gt;" style="ellipse;whiteSpace=wrap;html=1;" parent="1" vertex="1">
          <mxGeometry x="710" y="450" width="120" height="30" as="geometry" />
        </mxCell>
        <mxCell id="7sQpSWEZFjkxRv6NlpaU-34" value="&lt;u&gt;Elevation&lt;/u&gt;" style="ellipse;whiteSpace=wrap;html=1;" parent="1" vertex="1">
          <mxGeometry x="580" y="480" width="120" height="30" as="geometry" />
        </mxCell>
        <mxCell id="7sQpSWEZFjkxRv6NlpaU-36" value="" style="endArrow=none;html=1;rounded=0;exitX=1;exitY=0;exitDx=0;exitDy=0;entryX=0;entryY=0.5;entryDx=0;entryDy=0;" parent="1" source="7sQpSWEZFjkxRv6NlpaU-31" target="7sQpSWEZFjkxRv6NlpaU-32" edge="1">
          <mxGeometry width="50" height="50" relative="1" as="geometry">
            <mxPoint x="450" y="260" as="sourcePoint" />
            <mxPoint x="500" y="210" as="targetPoint" />
          </mxGeometry>
        </mxCell>
        <mxCell id="7sQpSWEZFjkxRv6NlpaU-37" value="" style="endArrow=none;html=1;rounded=0;exitX=1;exitY=1;exitDx=0;exitDy=0;entryX=0;entryY=0.5;entryDx=0;entryDy=0;" parent="1" source="7sQpSWEZFjkxRv6NlpaU-31" target="7sQpSWEZFjkxRv6NlpaU-33" edge="1">
          <mxGeometry width="50" height="50" relative="1" as="geometry">
            <mxPoint x="680" y="490" as="sourcePoint" />
            <mxPoint x="730" y="440" as="targetPoint" />
          </mxGeometry>
        </mxCell>
        <mxCell id="7sQpSWEZFjkxRv6NlpaU-38" value="" style="endArrow=none;html=1;rounded=0;entryX=0.75;entryY=1;entryDx=0;entryDy=0;exitX=0.5;exitY=0;exitDx=0;exitDy=0;" parent="1" source="7sQpSWEZFjkxRv6NlpaU-34" target="7sQpSWEZFjkxRv6NlpaU-31" edge="1">
          <mxGeometry width="50" height="50" relative="1" as="geometry">
            <mxPoint x="490" y="510" as="sourcePoint" />
            <mxPoint x="540" y="460" as="targetPoint" />
          </mxGeometry>
        </mxCell>
        <mxCell id="7sQpSWEZFjkxRv6NlpaU-39" value="" style="endArrow=none;html=1;rounded=0;entryX=1;entryY=1;entryDx=0;entryDy=0;" parent="1" source="7sQpSWEZFjkxRv6NlpaU-29" target="7sQpSWEZFjkxRv6NlpaU-2" edge="1">
          <mxGeometry width="50" height="50" relative="1" as="geometry">
            <mxPoint x="640" y="269.28932188134524" as="sourcePoint" />
            <mxPoint x="640" y="230" as="targetPoint" />
          </mxGeometry>
        </mxCell>
        <mxCell id="7sQpSWEZFjkxRv6NlpaU-40" value="" style="endArrow=none;html=1;rounded=0;exitX=0;exitY=0.5;exitDx=0;exitDy=0;entryX=1;entryY=0.75;entryDx=0;entryDy=0;" parent="1" source="7sQpSWEZFjkxRv6NlpaU-28" target="7sQpSWEZFjkxRv6NlpaU-2" edge="1">
          <mxGeometry width="50" height="50" relative="1" as="geometry">
            <mxPoint x="540" y="280" as="sourcePoint" />
            <mxPoint x="590" y="230" as="targetPoint" />
          </mxGeometry>
        </mxCell>
        <mxCell id="7sQpSWEZFjkxRv6NlpaU-41" value="" style="endArrow=none;html=1;rounded=0;exitX=1;exitY=0.25;exitDx=0;exitDy=0;entryX=0;entryY=0.5;entryDx=0;entryDy=0;" parent="1" source="7sQpSWEZFjkxRv6NlpaU-2" target="7sQpSWEZFjkxRv6NlpaU-25" edge="1">
          <mxGeometry width="50" height="50" relative="1" as="geometry">
            <mxPoint x="520" y="240" as="sourcePoint" />
            <mxPoint x="570" y="190" as="targetPoint" />
          </mxGeometry>
        </mxCell>
        <mxCell id="7sQpSWEZFjkxRv6NlpaU-42" value="" style="endArrow=none;html=1;rounded=0;entryX=0.5;entryY=1;entryDx=0;entryDy=0;exitX=0.5;exitY=0;exitDx=0;exitDy=0;" parent="1" source="7sQpSWEZFjkxRv6NlpaU-2" target="7sQpSWEZFjkxRv6NlpaU-26" edge="1">
          <mxGeometry width="50" height="50" relative="1" as="geometry">
            <mxPoint x="410" y="250" as="sourcePoint" />
            <mxPoint x="460" y="200" as="targetPoint" />
          </mxGeometry>
        </mxCell>
        <mxCell id="7sQpSWEZFjkxRv6NlpaU-44" value="&lt;u&gt;Name&lt;/u&gt;" style="ellipse;whiteSpace=wrap;html=1;" parent="1" vertex="1">
          <mxGeometry x="40" y="425" width="90" height="30" as="geometry" />
        </mxCell>
        <mxCell id="7sQpSWEZFjkxRv6NlpaU-45" value="Seasons" style="ellipse;whiteSpace=wrap;html=1;" parent="1" vertex="1">
          <mxGeometry x="80" y="495" width="90" height="30" as="geometry" />
        </mxCell>
        <mxCell id="7sQpSWEZFjkxRv6NlpaU-46" value="Type" style="ellipse;whiteSpace=wrap;html=1;" parent="1" vertex="1">
          <mxGeometry x="220" y="505" width="90" height="30" as="geometry" />
        </mxCell>
        <mxCell id="7sQpSWEZFjkxRv6NlpaU-47" value="" style="endArrow=none;html=1;rounded=0;exitX=1;exitY=0.5;exitDx=0;exitDy=0;entryX=0;entryY=0.5;entryDx=0;entryDy=0;" parent="1" source="7sQpSWEZFjkxRv6NlpaU-44" target="7sQpSWEZFjkxRv6NlpaU-3" edge="1">
          <mxGeometry width="50" height="50" relative="1" as="geometry">
            <mxPoint x="150" y="415" as="sourcePoint" />
            <mxPoint x="200" y="365" as="targetPoint" />
          </mxGeometry>
        </mxCell>
        <mxCell id="7sQpSWEZFjkxRv6NlpaU-48" value="" style="endArrow=none;html=1;rounded=0;entryX=0;entryY=1;entryDx=0;entryDy=0;exitX=0.5;exitY=0;exitDx=0;exitDy=0;" parent="1" source="7sQpSWEZFjkxRv6NlpaU-45" target="7sQpSWEZFjkxRv6NlpaU-3" edge="1">
          <mxGeometry width="50" height="50" relative="1" as="geometry">
            <mxPoint x="180" y="515" as="sourcePoint" />
            <mxPoint x="230" y="475" as="targetPoint" />
          </mxGeometry>
        </mxCell>
        <mxCell id="7sQpSWEZFjkxRv6NlpaU-49" value="" style="endArrow=none;html=1;rounded=0;entryX=0.75;entryY=1;entryDx=0;entryDy=0;exitX=0.5;exitY=0;exitDx=0;exitDy=0;" parent="1" source="7sQpSWEZFjkxRv6NlpaU-46" target="7sQpSWEZFjkxRv6NlpaU-3" edge="1">
          <mxGeometry width="50" height="50" relative="1" as="geometry">
            <mxPoint x="240" y="535" as="sourcePoint" />
            <mxPoint x="290" y="485" as="targetPoint" />
          </mxGeometry>
        </mxCell>
        <mxCell id="7sQpSWEZFjkxRv6NlpaU-50" value="Habitat_is_at" style="rhombus;whiteSpace=wrap;html=1;" parent="1" vertex="1">
          <mxGeometry x="590" y="290" width="100" height="40" as="geometry" />
        </mxCell>
        <mxCell id="7sQpSWEZFjkxRv6NlpaU-51" value="1" style="endArrow=none;html=1;rounded=0;entryX=0.5;entryY=1;entryDx=0;entryDy=0;exitX=0.5;exitY=0;exitDx=0;exitDy=0;align=left;shape=link;" parent="1" source="7sQpSWEZFjkxRv6NlpaU-50" target="7sQpSWEZFjkxRv6NlpaU-2" edge="1">
          <mxGeometry width="50" height="50" relative="1" as="geometry">
            <mxPoint x="610" y="310" as="sourcePoint" />
            <mxPoint x="530" y="240" as="targetPoint" />
          </mxGeometry>
        </mxCell>
        <mxCell id="7sQpSWEZFjkxRv6NlpaU-52" value="N" style="endArrow=none;html=1;rounded=0;entryX=0.5;entryY=1;entryDx=0;entryDy=0;exitX=0.5;exitY=0;exitDx=0;exitDy=0;align=left;" parent="1" source="7sQpSWEZFjkxRv6NlpaU-31" target="7sQpSWEZFjkxRv6NlpaU-50" edge="1">
          <mxGeometry width="50" height="50" relative="1" as="geometry">
            <mxPoint x="580" y="480" as="sourcePoint" />
            <mxPoint x="630" y="430" as="targetPoint" />
          </mxGeometry>
        </mxCell>
        <mxCell id="7sQpSWEZFjkxRv6NlpaU-53" value="has" style="rhombus;whiteSpace=wrap;html=1;" parent="1" vertex="1">
          <mxGeometry x="390" y="180" width="100" height="40" as="geometry" />
        </mxCell>
        <mxCell id="7sQpSWEZFjkxRv6NlpaU-54" value="&lt;div style=&quot;&quot;&gt;N&lt;/div&gt;" style="endArrow=none;html=1;rounded=0;entryX=1;entryY=0.5;entryDx=0;entryDy=0;exitX=0;exitY=0.5;exitDx=0;exitDy=0;align=right;shape=link;" parent="1" source="7sQpSWEZFjkxRv6NlpaU-53" target="7sQpSWEZFjkxRv6NlpaU-1" edge="1">
          <mxGeometry width="50" height="50" relative="1" as="geometry">
            <mxPoint x="210" y="420" as="sourcePoint" />
            <mxPoint x="260" y="370" as="targetPoint" />
          </mxGeometry>
        </mxCell>
        <mxCell id="7sQpSWEZFjkxRv6NlpaU-55" value="1" style="endArrow=none;html=1;rounded=0;entryX=1;entryY=0.5;entryDx=0;entryDy=0;exitX=0;exitY=0.5;exitDx=0;exitDy=0;" parent="1" source="7sQpSWEZFjkxRv6NlpaU-2" target="7sQpSWEZFjkxRv6NlpaU-53" edge="1">
          <mxGeometry width="50" height="50" relative="1" as="geometry">
            <mxPoint x="430" y="440" as="sourcePoint" />
            <mxPoint x="480" y="390" as="targetPoint" />
          </mxGeometry>
        </mxCell>
        <mxCell id="7sQpSWEZFjkxRv6NlpaU-56" value="is_at" style="rhombus;whiteSpace=wrap;html=1;" parent="1" vertex="1">
          <mxGeometry x="380" y="310" width="110" height="40" as="geometry" />
        </mxCell>
        <mxCell id="7sQpSWEZFjkxRv6NlpaU-57" value="1" style="endArrow=none;html=1;rounded=0;entryX=0.5;entryY=1;entryDx=0;entryDy=0;exitX=0;exitY=0;exitDx=0;exitDy=0;shape=link;" parent="1" source="7sQpSWEZFjkxRv6NlpaU-56" target="7sQpSWEZFjkxRv6NlpaU-1" edge="1">
          <mxGeometry width="50" height="50" relative="1" as="geometry">
            <mxPoint x="320" y="380" as="sourcePoint" />
            <mxPoint x="370" y="330" as="targetPoint" />
          </mxGeometry>
        </mxCell>
        <mxCell id="7sQpSWEZFjkxRv6NlpaU-60" value="N" style="endArrow=none;html=1;rounded=0;entryX=1;entryY=1;entryDx=0;entryDy=0;exitX=0;exitY=0;exitDx=0;exitDy=0;" parent="1" source="7sQpSWEZFjkxRv6NlpaU-31" target="7sQpSWEZFjkxRv6NlpaU-56" edge="1">
          <mxGeometry width="50" height="50" relative="1" as="geometry">
            <mxPoint x="450" y="560" as="sourcePoint" />
            <mxPoint x="500" y="510" as="targetPoint" />
          </mxGeometry>
        </mxCell>
        <mxCell id="7sQpSWEZFjkxRv6NlpaU-61" value="Eats" style="rhombus;whiteSpace=wrap;html=1;" parent="1" vertex="1">
          <mxGeometry x="200" y="320" width="80" height="40" as="geometry" />
        </mxCell>
        <mxCell id="7sQpSWEZFjkxRv6NlpaU-62" value="N" style="endArrow=none;html=1;rounded=0;entryX=0.25;entryY=1;entryDx=0;entryDy=0;exitX=0.5;exitY=0;exitDx=0;exitDy=0;" parent="1" source="7sQpSWEZFjkxRv6NlpaU-61" target="7sQpSWEZFjkxRv6NlpaU-1" edge="1">
          <mxGeometry width="50" height="50" relative="1" as="geometry">
            <mxPoint x="230" y="340" as="sourcePoint" />
            <mxPoint x="280" y="290" as="targetPoint" />
          </mxGeometry>
        </mxCell>
        <mxCell id="7sQpSWEZFjkxRv6NlpaU-63" value="N" style="endArrow=none;html=1;rounded=0;entryX=0.5;entryY=1;entryDx=0;entryDy=0;exitX=0.5;exitY=0;exitDx=0;exitDy=0;" parent="1" source="7sQpSWEZFjkxRv6NlpaU-3" target="7sQpSWEZFjkxRv6NlpaU-61" edge="1">
          <mxGeometry width="50" height="50" relative="1" as="geometry">
            <mxPoint x="240" y="530" as="sourcePoint" />
            <mxPoint x="270" y="480" as="targetPoint" />
          </mxGeometry>
        </mxCell>
        <mxCell id="7sQpSWEZFjkxRv6NlpaU-64" value="Last_Spotted" style="ellipse;whiteSpace=wrap;html=1;" parent="1" vertex="1">
          <mxGeometry x="330" y="370" width="110" height="30" as="geometry" />
        </mxCell>
        <mxCell id="7sQpSWEZFjkxRv6NlpaU-65" value="" style="endArrow=none;html=1;rounded=0;entryX=0;entryY=1;entryDx=0;entryDy=0;exitX=0.5;exitY=0;exitDx=0;exitDy=0;" parent="1" source="7sQpSWEZFjkxRv6NlpaU-64" target="7sQpSWEZFjkxRv6NlpaU-56" edge="1">
          <mxGeometry width="50" height="50" relative="1" as="geometry">
            <mxPoint x="330" y="480" as="sourcePoint" />
            <mxPoint x="380" y="430" as="targetPoint" />
          </mxGeometry>
        </mxCell>
      </root>
    </mxGraphModel>
  </diagram>
</mxfile>
